<svg width="13" height="8" viewBox="0 0 13 8" fill="none" xmlns="http://www.w3.org/2000/svg">
<path d="M0.271637 0.283236C0.445619 0.109307 0.681557 0.0115992 0.927567 0.0115992C1.17358 0.0115992 1.40952 0.109307 1.5835 0.283236L6.49416 5.1939L11.4048 0.283236C11.4904 0.194625 11.5928 0.123946 11.706 0.0753224C11.8192 0.0266991 11.9409 0.0011055 12.0641 3.50284e-05C12.1873 -0.00103544 12.3094 0.0224393 12.4235 0.0690881C12.5375 0.115737 12.6411 0.184626 12.7282 0.271737C12.8153 0.358847 12.8842 0.462434 12.9308 0.576453C12.9775 0.690472 13.001 0.812639 12.9999 0.935827C12.9988 1.05902 12.9732 1.18076 12.9246 1.29395C12.876 1.40714 12.8053 1.50951 12.7167 1.5951L7.15009 7.16169C6.97611 7.33562 6.74017 7.43333 6.49416 7.43333C6.24815 7.43333 6.01221 7.33562 5.83823 7.16169L0.271637 1.5951C0.0977081 1.42111 0 1.18518 0 0.939166C0 0.693156 0.0977081 0.457218 0.271637 0.283236Z" fill="#222222"/>
</svg>
